<svg width="64" height="64" viewBox="0 0 64 64" fill="none" xmlns="http://www.w3.org/2000/svg">
<path d="M0 32C0 14.3269 14.3269 0 32 0C49.6731 0 64 14.3269 64 32C64 49.6731 49.6731 64 32 64C14.3269 64 0 49.6731 0 32Z" fill="#121212"/>
<g clip-path="url(#clip0_986_44698)">
<path d="M42.8576 39.4455C42.4507 40.3772 41.969 41.2347 41.4109 42.0232C40.6501 43.0981 40.0272 43.8421 39.5472 44.2552C38.803 44.9334 38.0057 45.2807 37.1519 45.3005C36.539 45.3005 35.7998 45.1276 34.9394 44.777C34.0762 44.4281 33.2828 44.2552 32.5575 44.2552C31.7967 44.2552 30.9808 44.4281 30.1081 44.777C29.234 45.1276 28.5299 45.3103 27.9916 45.3284C27.1728 45.363 26.3568 45.0058 25.5422 44.2552C25.0223 43.8059 24.372 43.0355 23.5929 41.9442C22.7571 40.7788 22.0699 39.4274 21.5316 37.8867C20.955 36.2225 20.666 34.6111 20.666 33.051C20.666 31.2638 21.0557 29.7225 21.8362 28.4308C22.4496 27.3933 23.2657 26.5749 24.2871 25.9741C25.3085 25.3733 26.4121 25.0672 27.6006 25.0476C28.2509 25.0476 29.1036 25.2469 30.1634 25.6387C31.2202 26.0317 31.8987 26.2311 32.1962 26.2311C32.4186 26.2311 33.1724 25.998 34.4502 25.5333C35.6586 25.1024 36.6785 24.924 37.514 24.9942C39.778 25.1753 41.479 26.0597 42.6101 27.6531C40.5853 28.8689 39.5837 30.5717 39.6036 32.7561C39.6219 34.4577 40.2448 35.8736 41.469 36.9978C42.0238 37.5196 42.6434 37.9229 43.3327 38.2093C43.1832 38.6389 43.0254 39.0504 42.8576 39.4455ZM37.6652 19.1975C37.6652 20.5312 37.1735 21.7764 36.1935 22.929C35.0108 24.2991 33.5803 25.0909 32.0291 24.9659C32.0093 24.8059 31.9979 24.6375 31.9979 24.4606C31.9979 23.1803 32.5603 21.8101 33.5591 20.6898C34.0577 20.1226 34.6919 19.651 35.461 19.2747C36.2284 18.9041 36.9543 18.6992 37.6369 18.6641C37.6569 18.8423 37.6652 19.0206 37.6652 19.1975V19.1975Z" fill="white"/>
</g>
<defs>
<clipPath id="clip0_986_44698">
<rect width="26.6667" height="26.6667" fill="white" transform="translate(18.666 18.6641)"/>
</clipPath>
</defs>
</svg>
