<svg width="56" height="12" viewBox="0 0 56 12" fill="none" xmlns="http://www.w3.org/2000/svg">
<path d="M0.785156 9.5V1.01562H6.22266V2.29297H2.30859V4.61328H5.84766V5.89062H2.30859V9.5H0.785156ZM7.08984 7.70703C7.08984 6.27734 8.27344 5.85547 9.45703 5.78516C9.89648 5.75586 10.8105 5.70312 11.0859 5.69141V5.1875C11.0859 4.55469 10.6758 4.19141 9.9375 4.19141C9.26953 4.19141 8.85938 4.49609 8.74219 4.95312H7.30078C7.40625 3.875 8.37891 3.05469 9.97266 3.05469C11.1797 3.05469 12.5742 3.54688 12.5742 5.24609V9.5H11.1445V8.62109H11.0977C10.8164 9.16016 10.2188 9.62891 9.22266 9.62891C8.00391 9.62891 7.08984 8.96094 7.08984 7.70703ZM8.53125 7.69531C8.53125 8.24609 8.97656 8.52734 9.60938 8.52734C10.5117 8.52734 11.0977 7.92969 11.0977 7.21484V6.6875L9.69141 6.78125C8.97656 6.83984 8.53125 7.13281 8.53125 7.69531ZM13.9805 9.5V3.13672H15.4102V4.21484H15.4922C15.75 3.48828 16.3945 3.05469 17.2383 3.05469C18.1055 3.05469 18.7148 3.48828 18.9609 4.21484H19.0312C19.3125 3.51172 20.0156 3.05469 20.9414 3.05469C22.1016 3.05469 22.9219 3.80469 22.9219 5.22266V9.5H21.4336V5.45703C21.4336 4.66016 20.9531 4.30859 20.3438 4.30859C19.6055 4.30859 19.1836 4.8125 19.1836 5.52734V9.5H17.7305V5.39844C17.7305 4.74219 17.2852 4.30859 16.6523 4.30859C16.0078 4.30859 15.4805 4.83594 15.4805 5.63281V9.5H13.9805ZM24.3516 9.5V3.13672H25.8516V9.5H24.3516ZM25.1133 2.23438C24.6445 2.23438 24.2461 1.87109 24.2461 1.41406C24.2461 0.96875 24.6445 0.605469 25.1133 0.605469C25.5938 0.605469 25.9805 0.96875 25.9805 1.41406C25.9805 1.87109 25.5938 2.23438 25.1133 2.23438ZM28.7812 1.01562V9.5H27.2812V1.01562H28.7812ZM31.1133 11.8906C30.8203 11.8906 30.5273 11.8789 30.3398 11.8555V10.6602C30.5273 10.6719 30.7734 10.6836 30.9727 10.6836C31.3359 10.6836 31.6406 10.6484 31.8984 9.96875L32.0273 9.62891L29.707 3.13672H31.2891L32.7656 7.94141H32.8359L34.3125 3.13672H35.8945L33.3398 10.2734C32.9766 11.293 32.3086 11.8906 31.1133 11.8906ZM40.4414 4.95312C40.3477 4.47266 39.9492 4.16797 39.3164 4.16797C38.6719 4.16797 38.2031 4.48438 38.2148 4.91797C38.2031 5.24609 38.4727 5.49219 39.1172 5.64453L40.1953 5.86719C41.4023 6.13672 41.9766 6.6875 41.9883 7.60156C41.9766 8.79688 40.9336 9.62891 39.2695 9.62891C37.6523 9.62891 36.6914 8.90234 36.5391 7.68359H38.0625C38.1562 8.22266 38.5781 8.49219 39.2695 8.49219C39.9844 8.49219 40.4648 8.19922 40.4648 7.73047C40.4648 7.36719 40.1719 7.13281 39.5391 6.99219L38.5195 6.76953C37.3359 6.53516 36.7266 5.91406 36.7266 5C36.7266 3.82812 37.7344 3.05469 39.293 3.05469C40.8164 3.05469 41.7539 3.79297 41.8594 4.95312H40.4414ZM43.125 9.5V3.13672H44.625V9.5H43.125ZM43.8867 2.23438C43.418 2.23438 43.0195 1.87109 43.0195 1.41406C43.0195 0.96875 43.418 0.605469 43.8867 0.605469C44.3672 0.605469 44.7539 0.96875 44.7539 1.41406C44.7539 1.87109 44.3672 2.23438 43.8867 2.23438ZM49.2305 3.13672V4.28516H47.9766V7.58984C47.9766 8.19922 48.2812 8.32812 48.6562 8.32812C48.832 8.32812 49.125 8.31641 49.3125 8.30469V9.52344C49.1367 9.55859 48.8438 9.58203 48.4688 9.58203C47.3438 9.58203 46.4766 9.03125 46.4883 7.83594V4.28516H45.5742V3.13672H46.4883V1.61328H47.9766V3.13672H49.2305ZM53.1328 9.62891C51.2109 9.62891 50.0391 8.35156 50.0391 6.35938C50.0391 4.39062 51.2344 3.05469 53.0508 3.05469C54.6094 3.05469 55.957 4.02734 55.957 6.26562V6.73438H51.5156C51.5332 7.81836 52.1719 8.45703 53.1445 8.45703C53.8008 8.45703 54.2461 8.17578 54.4336 7.80078H55.8984C55.6289 8.90234 54.6094 9.62891 53.1328 9.62891ZM51.5273 5.71484H54.5273C54.5156 4.84766 53.9414 4.21484 53.0742 4.21484C52.1719 4.21484 51.5742 4.90039 51.5273 5.71484Z" fill="#030303"/>
</svg>
