<svg width="188" height="49" viewBox="0 0 188 49" fill="none" xmlns="http://www.w3.org/2000/svg">
<g clip-path="url(#clip0_986_44641)">
<path opacity="0.5" d="M16.3076 0.125H48.2113V32.6157H16.1772C7.25245 32.6157 0 25.3633 0 16.4386C0 7.43675 7.30582 0.125 16.3076 0.125Z" fill="#0059FF"/>
<path opacity="0.5" d="M32.0338 48.8594L-0.000370026 48.8594L-0.000370026 16.3686L31.9033 16.3686C40.9051 16.3746 48.2109 23.6804 48.2109 32.6822C48.2109 41.6129 40.9585 48.8594 32.0338 48.8594Z" fill="#0059FF"/>
<path opacity="0.5" d="M73.9776 0.125H55.3691V48.8582H73.9776V0.125Z" fill="#0059FF"/>
<path opacity="0.5" d="M103.569 0.125H55.3691V14.4164H103.569V0.125Z" fill="#0059FF"/>
<path opacity="0.5" d="M92.5921 19.8594H55.3691V33.9136H92.5921V19.8594Z" fill="#0059FF"/>
<path opacity="0.5" d="M96.1934 48.8582H120.424V0.125L96.1934 48.8582Z" fill="#0059FF"/>
<path opacity="0.72" d="M120.424 48.8582H144.66L120.424 0.125V48.8582Z" fill="#0059FF"/>
<path opacity="0.5" d="M152.184 42.1431C156.59 46.3831 162.561 48.9983 169.155 48.9983C176.224 48.9983 182.575 45.9858 187.046 41.1943L170.086 24.2344L152.178 42.1431H152.184Z" fill="#0059FF"/>
<path opacity="0.5" d="M169.154 0C162.696 0 156.837 2.52027 152.461 6.60608L170.091 24.2361L186.802 7.52523C182.342 2.89386 176.092 0 169.16 0L169.154 0Z" fill="#0059FF"/>
<path opacity="0.72" d="M152.46 6.60749C147.669 11.0788 144.656 17.4298 144.656 24.4985C144.656 31.5671 147.55 37.6869 152.181 42.1404L170.09 24.2316L152.46 6.60156V6.60749Z" fill="#0059FF"/>
</g>
<defs>
<clipPath id="clip0_986_44641">
<rect width="187.052" height="49" fill="white"/>
</clipPath>
</defs>
</svg>
