<svg width="81" height="21" viewBox="0 0 81 21" fill="none" xmlns="http://www.w3.org/2000/svg">
<g clip-path="url(#clip0_1011_13551)">
<path opacity="0.5" d="M6.98899 0.0546875H20.662V13.9793H6.93308C3.10819 13.9793 0 10.8711 0 7.04622C0 3.1883 3.13107 0.0546875 6.98899 0.0546875Z" fill="#0059FF"/>
<path opacity="0.5" d="M13.729 20.9395L0.000120392 20.9395V7.01485L13.6731 7.01485C17.531 7.01739 20.6621 10.1485 20.6621 14.0064C20.6621 17.8338 17.5539 20.9395 13.729 20.9395Z" fill="#0059FF"/>
<path opacity="0.5" d="M31.7055 0.0546875H23.7305V20.9403H31.7055V0.0546875Z" fill="#0059FF"/>
<path opacity="0.5" d="M44.3874 0.0546875H23.7305V6.17958H44.3874V0.0546875Z" fill="#0059FF"/>
<path opacity="0.5" d="M39.6832 8.51172H23.7305V14.535H39.6832V8.51172Z" fill="#0059FF"/>
<path opacity="0.5" d="M41.2246 20.9403H51.609V0.0546875L41.2246 20.9403Z" fill="#0059FF"/>
<path opacity="0.72" d="M51.6094 20.9403H61.9963L51.6094 0.0546875V20.9403Z" fill="#0059FF"/>
<path opacity="0.5" d="M65.2213 18.0599C67.1096 19.8771 69.6688 20.9979 72.4949 20.9979C75.5243 20.9979 78.2462 19.7068 80.1625 17.6533L72.8939 10.3848L65.2188 18.0599H65.2213Z" fill="#0059FF"/>
<path opacity="0.5" d="M72.496 0C69.7283 0 67.2174 1.08012 65.3418 2.83118L72.8975 10.3869L80.0593 3.2251C78.1482 1.24023 75.4695 0 72.4985 0L72.496 0Z" fill="#0059FF"/>
<path opacity="0.72" d="M65.3406 2.82969C63.2872 4.74594 61.9961 7.46784 61.9961 10.4972C61.9961 13.5267 63.2363 16.1494 65.2212 18.0581L72.8964 10.3829L65.3406 2.82715V2.82969Z" fill="#0059FF"/>
</g>
<defs>
<clipPath id="clip0_1011_13551">
<rect width="80.165" height="21" fill="white"/>
</clipPath>
</defs>
</svg>
