<svg width="35" height="31" viewBox="0 0 35 31" fill="none" xmlns="http://www.w3.org/2000/svg">
<g clip-path="url(#clip0_2061_105314)">
<path d="M5.94 23.9259C5.94 23.5849 5.80542 23.2897 5.53625 23.0405C5.26708 22.7913 4.94833 22.6667 4.58 22.6667C4.1975 22.6667 3.87521 22.7913 3.61313 23.0405C3.35104 23.2897 3.22 23.5849 3.22 23.9259C3.22 24.2801 3.35104 24.5785 3.61313 24.8212C3.87521 25.0639 4.1975 25.1852 4.58 25.1852C4.94833 25.1852 5.26708 25.0639 5.53625 24.8212C5.80542 24.5785 5.94 24.2801 5.94 23.9259ZM9.34 13.8519V26.4444C9.34 26.7855 9.20542 27.0806 8.93625 27.3299C8.66708 27.5791 8.34833 27.7037 7.98 27.7037H1.86C1.49167 27.7037 1.17292 27.5791 0.90375 27.3299C0.634583 27.0806 0.5 26.7855 0.5 26.4444V13.8519C0.5 13.5108 0.634583 13.2157 0.90375 12.9664C1.17292 12.7172 1.49167 12.5926 1.86 12.5926H7.98C8.34833 12.5926 8.66708 12.7172 8.93625 12.9664C9.20542 13.2157 9.34 13.5108 9.34 13.8519ZM34.5 13.8519C34.5 14.9799 34.1104 15.9572 33.3312 16.7836C33.5437 17.3607 33.65 17.8592 33.65 18.2789C33.6925 19.2758 33.3879 20.1744 32.7363 20.9745C32.9771 21.7091 32.9771 22.4765 32.7363 23.2766C32.5238 24.0243 32.1413 24.6408 31.5888 25.1262C31.7163 26.5953 31.3692 27.7824 30.5475 28.6875C29.6408 29.6844 28.2454 30.196 26.3612 30.2222H23.62C22.685 30.2222 21.665 30.1206 20.56 29.9172C19.455 29.7139 18.5944 29.5237 17.9781 29.3466C17.3619 29.1696 16.5083 28.9105 15.4175 28.5694C13.675 28.0054 12.5558 27.7168 12.06 27.7037C11.6917 27.6906 11.3729 27.5627 11.1038 27.32C10.8346 27.0774 10.7 26.7855 10.7 26.4444V13.8322C10.7 13.5042 10.8275 13.2189 11.0825 12.9763C11.3375 12.7336 11.6421 12.5992 11.9963 12.5729C12.3363 12.5467 12.8746 12.1597 13.6112 11.412C14.3479 10.6644 15.0633 9.87076 15.7575 9.03125C16.7208 7.89005 17.4362 7.10301 17.9037 6.67014C18.1587 6.43403 18.3783 6.11921 18.5625 5.72569C18.7467 5.33218 18.8706 5.01408 18.9344 4.77141C18.9981 4.52874 19.0938 4.13194 19.2213 3.58102C19.3204 3.06944 19.409 2.66937 19.4869 2.38079C19.5648 2.09221 19.7029 1.75116 19.9013 1.35764C20.0996 0.96412 20.3404 0.636188 20.6238 0.373843C20.8929 0.124614 21.2117 0 21.58 0C22.2317 0 22.816 0.0688657 23.3331 0.206597C23.8502 0.344329 24.2752 0.514853 24.6081 0.718171C24.941 0.921489 25.2244 1.18711 25.4581 1.51505C25.6919 1.84298 25.8619 2.13812 25.9681 2.40046C26.0744 2.66281 26.1594 2.99074 26.2231 3.38426C26.2869 3.77778 26.3223 4.07292 26.3294 4.26968C26.3365 4.46643 26.34 4.72222 26.34 5.03704C26.34 5.53549 26.2727 6.03395 26.1381 6.53241C26.0035 7.03086 25.869 7.42438 25.7344 7.71296C25.5998 8.00154 25.405 8.36883 25.15 8.81481C25.1075 8.89352 25.0367 9.01157 24.9375 9.16898C24.8383 9.32639 24.7604 9.47068 24.7038 9.60185C24.6471 9.73302 24.5904 9.89043 24.5338 10.0741H30.42C31.525 10.0741 32.4812 10.4479 33.2887 11.1956C34.0962 11.9433 34.5 12.8287 34.5 13.8519Z" fill="white"/>
</g>
<defs>
<clipPath id="clip0_2061_105314">
<rect width="34" height="30.2222" fill="white" transform="translate(0.5)"/>
</clipPath>
</defs>
</svg>
