<svg width="20" height="14" viewBox="0 0 20 14" fill="none" xmlns="http://www.w3.org/2000/svg">
<path d="M10.0002 0.857422C5.551 0.857422 1.75135 3.40435 0.211914 6.99953C1.75135 10.5947 5.551 13.1416 10.0002 13.1416C14.4495 13.1416 18.2491 10.5947 19.7886 6.99953C18.2491 3.40435 14.4495 0.857422 10.0002 0.857422ZM10.0002 11.0943C7.54426 11.0943 5.551 9.25983 5.551 6.99953C5.551 4.73924 7.54426 2.90479 10.0002 2.90479C12.4562 2.90479 14.4495 4.73924 14.4495 6.99953C14.4495 9.25983 12.4562 11.0943 10.0002 11.0943ZM10.0002 4.54269C8.5231 4.54269 7.3307 5.64008 7.3307 6.99953C7.3307 8.35899 8.5231 9.45638 10.0002 9.45638C11.4774 9.45638 12.6698 8.35899 12.6698 6.99953C12.6698 5.64008 11.4774 4.54269 10.0002 4.54269Z" fill="white"/>
</svg>
