<svg width="22" height="15" viewBox="0 0 22 15" fill="none" xmlns="http://www.w3.org/2000/svg">
<path d="M11 0.597656C6 0.597656 1.73 3.45986 0 7.50008C1.73 11.5403 6 14.4025 11 14.4025C16 14.4025 20.27 11.5403 22 7.50008C20.27 3.45986 16 0.597656 11 0.597656ZM11 12.1017C8.24 12.1017 6 10.0402 6 7.50008C6 4.95999 8.24 2.89846 11 2.89846C13.76 2.89846 16 4.95999 16 7.50008C16 10.0402 13.76 12.1017 11 12.1017ZM11 4.73911C9.34 4.73911 8 5.97234 8 7.50008C8 9.02782 9.34 10.2611 11 10.2611C12.66 10.2611 14 9.02782 14 7.50008C14 5.97234 12.66 4.73911 11 4.73911Z" fill="#666666"/>
</svg>
