<svg width="19" height="18" viewBox="0 0 19 18" fill="none" xmlns="http://www.w3.org/2000/svg">
<path d="M17.5926 7.38244C17.5926 7.56525 17.5847 7.74651 17.5691 7.92606C16.3757 6.93442 14.7764 6.3278 13.0185 6.3278C9.32631 6.3278 6.33333 9.00352 6.33333 12.3041C6.33333 13.1101 6.51184 13.8791 6.83551 14.5809C6.29244 14.4772 5.76845 14.3313 5.26884 14.1474C5.25527 14.1533 5.24084 14.1579 5.22589 14.1617L1.80049 15.0079C1.51942 15.0775 1.31773 14.7163 1.50911 14.4993C2.0405 13.8975 2.39424 13.3273 2.64215 12.6573C1.01175 11.3172 0 9.44896 0 7.38244C0 3.30517 3.93823 0 8.7963 0C13.6544 0 17.5926 3.30517 17.5926 7.38244Z" fill="white"/>
<path d="M17.7895 15.705C18.5475 14.8667 19 13.8072 19 12.6556C19 9.93748 16.4795 7.73398 13.3704 7.73398C10.2613 7.73398 7.74074 9.93748 7.74074 12.6556C7.74074 15.3737 10.2613 17.5772 13.3704 17.5772C14.1172 17.5772 14.8298 17.4502 15.482 17.2193L18.6069 17.9913C18.888 18.0608 19.0897 17.6996 18.8983 17.4826C18.3841 16.9002 18.036 16.3473 17.7895 15.705Z" fill="white"/>
</svg>
