<svg width="74" height="74" viewBox="0 0 74 74" fill="none" xmlns="http://www.w3.org/2000/svg">
<circle cx="37" cy="37" r="37" fill="#F3F3F3"/>
<path d="M24.1309 46.1152V39.8398H17.8555V36.1543H24.1309V29.8789H27.7832V36.1543H34.0918V39.8398H27.7832V46.1152H24.1309ZM38.0762 50V46.8789L46.5762 38.6777C49 36.2539 50.2617 34.8262 50.2617 32.8008C50.2617 30.5762 48.502 29.1484 46.1445 29.1484C43.6543 29.1484 42.0605 30.709 42.0938 33.1328H37.9766C37.9434 28.584 41.3633 25.6289 46.1777 25.6289C51.0918 25.6289 54.4121 28.5508 54.4121 32.6016C54.4121 35.3242 53.084 37.5156 48.3691 41.9648L44.0859 46.2148V46.3809H54.7773V50H38.0762Z" fill="#C2C2C2"/>
</svg>
