<svg width="18" height="17" viewBox="0 0 18 17" fill="none" xmlns="http://www.w3.org/2000/svg">
<g clip-path="url(#clip0_2061_102103)">
<path d="M2.88 13.1667C2.88 12.9861 2.80875 12.8299 2.66625 12.6979C2.52375 12.566 2.355 12.5 2.16 12.5C1.9575 12.5 1.78688 12.566 1.64813 12.6979C1.50938 12.8299 1.44 12.9861 1.44 13.1667C1.44 13.3542 1.50938 13.5122 1.64813 13.6406C1.78688 13.7691 1.9575 13.8333 2.16 13.8333C2.355 13.8333 2.52375 13.7691 2.66625 13.6406C2.80875 13.5122 2.88 13.3542 2.88 13.1667ZM4.68 7.83333V14.5C4.68 14.6806 4.60875 14.8368 4.46625 14.9688C4.32375 15.1007 4.155 15.1667 3.96 15.1667H0.72C0.525 15.1667 0.35625 15.1007 0.21375 14.9688C0.07125 14.8368 0 14.6806 0 14.5V7.83333C0 7.65278 0.07125 7.49653 0.21375 7.36458C0.35625 7.23264 0.525 7.16667 0.72 7.16667H3.96C4.155 7.16667 4.32375 7.23264 4.46625 7.36458C4.60875 7.49653 4.68 7.65278 4.68 7.83333ZM18 7.83333C18 8.43056 17.7938 8.94792 17.3813 9.38542C17.4938 9.69097 17.55 9.95486 17.55 10.1771C17.5725 10.7049 17.4113 11.1806 17.0662 11.6042C17.1938 11.9931 17.1938 12.3993 17.0662 12.8229C16.9538 13.2188 16.7513 13.5451 16.4587 13.8021C16.5263 14.5799 16.3425 15.2083 15.9075 15.6875C15.4275 16.2153 14.6888 16.4861 13.6913 16.5H12.24C11.745 16.5 11.205 16.4462 10.62 16.3385C10.035 16.2309 9.57938 16.1302 9.25313 16.0365C8.92688 15.9427 8.475 15.8056 7.8975 15.625C6.975 15.3264 6.3825 15.1736 6.12 15.1667C5.925 15.1597 5.75625 15.092 5.61375 14.9635C5.47125 14.8351 5.4 14.6806 5.4 14.5V7.82292C5.4 7.64931 5.4675 7.49826 5.6025 7.36979C5.7375 7.24132 5.89875 7.17014 6.08625 7.15625C6.26625 7.14236 6.55125 6.9375 6.94125 6.54167C7.33125 6.14583 7.71 5.72569 8.0775 5.28125C8.5875 4.67708 8.96625 4.26042 9.21375 4.03125C9.34875 3.90625 9.465 3.73958 9.5625 3.53125C9.66 3.32292 9.72563 3.15451 9.75938 3.02604C9.79313 2.89757 9.84375 2.6875 9.91125 2.39583C9.96375 2.125 10.0106 1.91319 10.0519 1.76042C10.0931 1.60764 10.1663 1.42708 10.2713 1.21875C10.3763 1.01042 10.5038 0.836806 10.6538 0.697917C10.7963 0.565972 10.965 0.5 11.16 0.5C11.505 0.5 11.8144 0.536458 12.0881 0.609375C12.3619 0.682292 12.5869 0.772569 12.7631 0.880208C12.9394 0.987847 13.0894 1.12847 13.2131 1.30208C13.3369 1.47569 13.4269 1.63194 13.4831 1.77083C13.5394 1.90972 13.5844 2.08333 13.6181 2.29167C13.6519 2.5 13.6706 2.65625 13.6744 2.76042C13.6781 2.86458 13.68 3 13.68 3.16667C13.68 3.43056 13.6444 3.69444 13.5731 3.95833C13.5019 4.22222 13.4306 4.43056 13.3594 4.58333C13.2881 4.73611 13.185 4.93056 13.05 5.16667C13.0275 5.20833 12.99 5.27083 12.9375 5.35417C12.885 5.4375 12.8438 5.51389 12.8138 5.58333C12.7838 5.65278 12.7538 5.73611 12.7238 5.83333H15.84C16.425 5.83333 16.9313 6.03125 17.3588 6.42708C17.7863 6.82292 18 7.29167 18 7.83333Z" fill="#666666"/>
</g>
<defs>
<clipPath id="clip0_2061_102103">
<rect width="18" height="16" fill="white" transform="translate(0 0.5)"/>
</clipPath>
</defs>
</svg>
