<svg width="18" height="16" viewBox="0 0 18 16" fill="none" xmlns="http://www.w3.org/2000/svg">
<g clip-path="url(#clip0_1464_106337)">
<path d="M2.88 12.6667C2.88 12.4861 2.80875 12.3299 2.66625 12.1979C2.52375 12.066 2.355 12 2.16 12C1.9575 12 1.78688 12.066 1.64813 12.1979C1.50938 12.3299 1.44 12.4861 1.44 12.6667C1.44 12.8542 1.50938 13.0122 1.64813 13.1406C1.78688 13.2691 1.9575 13.3333 2.16 13.3333C2.355 13.3333 2.52375 13.2691 2.66625 13.1406C2.80875 13.0122 2.88 12.8542 2.88 12.6667ZM4.68 7.33333V14C4.68 14.1806 4.60875 14.3368 4.46625 14.4688C4.32375 14.6007 4.155 14.6667 3.96 14.6667H0.72C0.525 14.6667 0.35625 14.6007 0.21375 14.4688C0.07125 14.3368 0 14.1806 0 14V7.33333C0 7.15278 0.07125 6.99653 0.21375 6.86458C0.35625 6.73264 0.525 6.66667 0.72 6.66667H3.96C4.155 6.66667 4.32375 6.73264 4.46625 6.86458C4.60875 6.99653 4.68 7.15278 4.68 7.33333ZM18 7.33333C18 7.93056 17.7938 8.44792 17.3813 8.88542C17.4938 9.19097 17.55 9.45486 17.55 9.67708C17.5725 10.2049 17.4113 10.6806 17.0662 11.1042C17.1938 11.4931 17.1938 11.8993 17.0662 12.3229C16.9538 12.7188 16.7513 13.0451 16.4587 13.3021C16.5263 14.0799 16.3425 14.7083 15.9075 15.1875C15.4275 15.7153 14.6888 15.9861 13.6913 16H12.24C11.745 16 11.205 15.9462 10.62 15.8385C10.035 15.7309 9.57938 15.6302 9.25313 15.5365C8.92688 15.4427 8.475 15.3056 7.8975 15.125C6.975 14.8264 6.3825 14.6736 6.12 14.6667C5.925 14.6597 5.75625 14.592 5.61375 14.4635C5.47125 14.3351 5.4 14.1806 5.4 14V7.32292C5.4 7.14931 5.4675 6.99826 5.6025 6.86979C5.7375 6.74132 5.89875 6.67014 6.08625 6.65625C6.26625 6.64236 6.55125 6.4375 6.94125 6.04167C7.33125 5.64583 7.71 5.22569 8.0775 4.78125C8.5875 4.17708 8.96625 3.76042 9.21375 3.53125C9.34875 3.40625 9.465 3.23958 9.5625 3.03125C9.66 2.82292 9.72563 2.65451 9.75938 2.52604C9.79313 2.39757 9.84375 2.1875 9.91125 1.89583C9.96375 1.625 10.0106 1.41319 10.0519 1.26042C10.0931 1.10764 10.1663 0.927083 10.2713 0.71875C10.3763 0.510417 10.5038 0.336806 10.6538 0.197917C10.7963 0.0659722 10.965 0 11.16 0C11.505 0 11.8144 0.0364583 12.0881 0.109375C12.3619 0.182292 12.5869 0.272569 12.7631 0.380208C12.9394 0.487847 13.0894 0.628472 13.2131 0.802083C13.3369 0.975694 13.4269 1.13194 13.4831 1.27083C13.5394 1.40972 13.5844 1.58333 13.6181 1.79167C13.6519 2 13.6706 2.15625 13.6744 2.26042C13.6781 2.36458 13.68 2.5 13.68 2.66667C13.68 2.93056 13.6444 3.19444 13.5731 3.45833C13.5019 3.72222 13.4306 3.93056 13.3594 4.08333C13.2881 4.23611 13.185 4.43056 13.05 4.66667C13.0275 4.70833 12.99 4.77083 12.9375 4.85417C12.885 4.9375 12.8438 5.01389 12.8138 5.08333C12.7838 5.15278 12.7538 5.23611 12.7238 5.33333H15.84C16.425 5.33333 16.9313 5.53125 17.3588 5.92708C17.7863 6.32292 18 6.79167 18 7.33333Z" fill="white"/>
</g>
<defs>
<clipPath id="clip0_1464_106337">
<rect width="18" height="16" fill="white"/>
</clipPath>
</defs>
</svg>
