<svg width="70" height="85" viewBox="0 0 70 85" fill="none" xmlns="http://www.w3.org/2000/svg">
<g filter="url(#filter0_dd_1464_106261)">
<mask id="mask0_1464_106261" style="mask-type:alpha" maskUnits="userSpaceOnUse" x="8" y="6" width="54" height="69">
<path d="M8.5 73.6906V7C8.5 6.44772 8.94771 6 9.5 6H60.5C61.0523 6 61.5 6.44772 61.5 7V73.6906C61.5 74.3879 60.8042 74.8711 60.1508 74.6276L35.3492 65.3848C35.124 65.3009 34.876 65.3009 34.6508 65.3848L9.84921 74.6276C9.19577 74.8711 8.5 74.3879 8.5 73.6906Z" fill="white"/>
</mask>
<g mask="url(#mask0_1464_106261)">
<rect x="-5.5" y="1" width="77" height="85" rx="1" fill="white"/>
<path opacity="0.5" d="M11.3684 3H37.5C38.0523 3 38.5 3.44772 38.5 4V30C38.5 30.5523 38.0523 31 37.5 31H11.2574C3.66765 31 -2.5 24.75 -2.5 17.0588C-2.5 9.30115 3.71304 3 11.3684 3Z" fill="#0059FF"/>
<path opacity="0.5" d="M24.7426 45L-1.5 45C-2.05228 45 -2.5 44.5523 -2.5 44V17C-2.5 16.4477 -2.05228 16 -1.5 16L24.6316 16C32.287 16.0053 38.5 22.5262 38.5 30.5609C38.5 38.532 32.3323 45 24.7426 45Z" fill="#0059FF"/>
<path opacity="0.5" d="M12.5 41H-1.5C-2.05228 41 -2.5 41.4477 -2.5 42V81C-2.5 81.5523 -2.05228 82 -1.5 82H12.5C13.0523 82 13.5 81.5523 13.5 81V42C13.5 41.4477 13.0523 41 12.5 41Z" fill="#0059FF"/>
<path opacity="0.5" d="M37.5 41H-1.5C-2.05228 41 -2.5 41.4477 -2.5 42V52C-2.5 52.5523 -2.05229 53 -1.5 53H37.5C38.0523 53 38.5 52.5523 38.5 52V42C38.5 41.4477 38.0523 41 37.5 41Z" fill="#0059FF"/>
<path opacity="0.5" d="M47.5 50H-20.5C-21.0523 50 -21.5 50.4477 -21.5 51V75C-21.5 75.5523 -21.0523 76 -20.5 76H47.5C48.0523 76 48.5 75.5523 48.5 75V51C48.5 50.4477 48.0523 50 47.5 50Z" fill="#0059FF"/>
<path opacity="0.5" d="M19.2655 39.5365C18.9173 40.2023 19.4002 41 20.1516 41H51.5C52.0523 41 52.5 40.5523 52.5 40V-19.9307C52.5 -20.9761 51.0984 -21.3205 50.6139 -20.3942L19.2655 39.5365Z" fill="#0059FF"/>
<path opacity="0.72" d="M52.5 40C52.5 40.5523 52.9477 41 53.5 41H79.9173C80.6521 41 81.1359 40.2342 80.8205 39.5706L54.4031 -15.9968C53.9454 -16.9596 52.5 -16.6335 52.5 -15.5675V40Z" fill="#0059FF"/>
<path opacity="0.5" d="M38.5057 74.5259C38.5063 74.5259 38.5069 74.5261 38.5073 74.5265C43.4353 79.149 50.1141 82 57.4893 82C65.0344 82 71.8486 79.0086 76.802 74.1947C77.1955 73.8122 77.1833 73.1827 76.7904 72.7996L59.2286 55.6804C58.8403 55.3019 58.2209 55.3019 57.8326 55.6804L38.5041 74.5219C38.5026 74.5233 38.5036 74.5259 38.5057 74.5259V74.5259Z" fill="#0059FF"/>
<path opacity="0.5" d="M56.291 34C47.1042 34 38.7335 37.2442 32.3324 42.5554C31.8797 42.931 31.8688 43.6158 32.2964 44.0197L56.9958 67.3513C57.3812 67.7154 57.9838 67.7154 58.3692 67.3513L81.7449 45.2702C82.1572 44.8807 82.1643 44.2256 81.7481 43.8403C75.1836 37.7626 66.2111 34 56.2999 34L56.291 34Z" fill="#0059FF"/>
<path opacity="0.72" d="M41.2503 46.0044C41.2503 46.0049 41.2501 46.0054 41.2497 46.0057C37.1055 49.9059 34.5 55.4456 34.5 61.6112C34.5 67.4126 36.716 72.4813 40.3148 76.296C40.6908 76.6946 41.3197 76.6869 41.7055 76.2978L55.8018 62.0826C56.1883 61.6927 56.1883 61.0641 55.8018 60.6743L41.2534 46.0031C41.2523 46.002 41.2503 46.0028 41.2503 46.0044V46.0044Z" fill="#0059FF"/>
</g>
<path d="M18.25 41V29.6875H22.6875C25.2656 29.6875 26.7344 31.2656 26.7344 33.5C26.7344 35.7656 25.2344 37.3125 22.625 37.3125H20.5938V41H18.25ZM20.5938 35.4219H22.25C23.6406 35.4219 24.3125 34.6406 24.3125 33.5C24.3125 32.375 23.6406 31.6094 22.25 31.6094H20.5938V35.4219ZM30.5625 29.6875V41H28.2188V29.6875H30.5625ZM40.0312 33.625C39.8438 32.375 38.875 31.6094 37.5625 31.6094C35.7969 31.6094 34.6406 32.9688 34.6406 35.3438C34.6406 37.7812 35.8125 39.0781 37.5469 39.0781C38.8438 39.0781 39.7969 38.3594 40.0312 37.1406L42.4062 37.1562C42.1406 39.25 40.3906 41.1562 37.5156 41.1562C34.4844 41.1562 32.25 39.0312 32.25 35.3438C32.25 31.6562 34.5312 29.5312 37.5156 29.5312C40.125 29.5312 42.0938 31.0312 42.4062 33.625H40.0312ZM44.0469 41V29.6875H46.3906V34.7031H46.5469L50.6562 29.6875H53.4844L49.2656 34.75L53.5312 41H50.7188L47.5781 36.3281L46.3906 37.7656V41H44.0469Z" fill="white"/>
</g>
<defs>
<filter id="filter0_dd_1464_106261" x="-5" y="0" width="80" height="91" filterUnits="userSpaceOnUse" color-interpolation-filters="sRGB">
<feFlood flood-opacity="0" result="BackgroundImageFix"/>
<feColorMatrix in="SourceAlpha" type="matrix" values="0 0 0 0 0 0 0 0 0 0 0 0 0 0 0 0 0 0 127 0" result="hardAlpha"/>
<feMorphology radius="2" operator="dilate" in="SourceAlpha" result="effect1_dropShadow_1464_106261"/>
<feOffset dy="2"/>
<feGaussianBlur stdDeviation="3"/>
<feColorMatrix type="matrix" values="0 0 0 0 0.235294 0 0 0 0 0.25098 0 0 0 0 0.262745 0 0 0 0.15 0"/>
<feBlend mode="normal" in2="BackgroundImageFix" result="effect1_dropShadow_1464_106261"/>
<feColorMatrix in="SourceAlpha" type="matrix" values="0 0 0 0 0 0 0 0 0 0 0 0 0 0 0 0 0 0 127 0" result="hardAlpha"/>
<feOffset dy="1"/>
<feGaussianBlur stdDeviation="1"/>
<feColorMatrix type="matrix" values="0 0 0 0 0.235294 0 0 0 0 0.25098 0 0 0 0 0.262745 0 0 0 0.3 0"/>
<feBlend mode="normal" in2="effect1_dropShadow_1464_106261" result="effect2_dropShadow_1464_106261"/>
<feBlend mode="normal" in="SourceGraphic" in2="effect2_dropShadow_1464_106261" result="shape"/>
</filter>
</defs>
</svg>
