<svg width="53" height="70" viewBox="0 0 53 70" fill="none" xmlns="http://www.w3.org/2000/svg">
<mask id="mask0_1494_86682" style="mask-type:alpha" maskUnits="userSpaceOnUse" x="0" y="0" width="53" height="69">
<path d="M0 67.6906V1C0 0.447715 0.447714 0 0.999999 0H52C52.5523 0 53 0.447718 53 1V67.6906C53 68.3879 52.3042 68.8711 51.6508 68.6276L26.8492 59.3848C26.624 59.3009 26.376 59.3009 26.1508 59.3848L1.34921 68.6276C0.695772 68.8711 0 68.3879 0 67.6906Z" fill="white"/>
</mask>
<g mask="url(#mask0_1494_86682)">
<rect x="-14" y="-5" width="77" height="85" rx="1" fill="white"/>
<path opacity="0.5" d="M2.86839 -3H29C29.5523 -3 30 -2.55228 30 -2V24C30 24.5523 29.5523 25 29 25H2.75744C-4.83235 25 -11 18.75 -11 11.0588C-11 3.30115 -4.78696 -3 2.86839 -3Z" fill="#0059FF"/>
<path opacity="0.5" d="M16.2426 39L-10 39C-10.5523 39 -11 38.5523 -11 38V11C-11 10.4477 -10.5523 10 -10 10L16.1316 10C23.787 10.0053 30 16.5262 30 24.5609C30 32.532 23.8323 39 16.2426 39Z" fill="#0059FF"/>
<path opacity="0.5" d="M4 35H-10C-10.5523 35 -11 35.4477 -11 36V75C-11 75.5523 -10.5523 76 -10 76H4C4.55228 76 5 75.5523 5 75V36C5 35.4477 4.55228 35 4 35Z" fill="#0059FF"/>
<path opacity="0.5" d="M29 35H-10C-10.5523 35 -11 35.4477 -11 36V46C-11 46.5523 -10.5523 47 -10 47H29C29.5523 47 30 46.5523 30 46V36C30 35.4477 29.5523 35 29 35Z" fill="#0059FF"/>
<path opacity="0.5" d="M39 44H-29C-29.5523 44 -30 44.4477 -30 45V69C-30 69.5523 -29.5523 70 -29 70H39C39.5523 70 40 69.5523 40 69V45C40 44.4477 39.5523 44 39 44Z" fill="#0059FF"/>
<path opacity="0.5" d="M10.7655 33.5365C10.4173 34.2023 10.9002 35 11.6516 35H43C43.5523 35 44 34.5523 44 34V-25.9307C44 -26.9761 42.5984 -27.3205 42.1139 -26.3942L10.7655 33.5365Z" fill="#0059FF"/>
<path opacity="0.72" d="M44 34C44 34.5523 44.4477 35 45 35H71.4173C72.1521 35 72.6359 34.2342 72.3205 33.5706L45.9031 -21.9968C45.4454 -22.9596 44 -22.6335 44 -21.5675V34Z" fill="#0059FF"/>
<path opacity="0.5" d="M30.0057 68.5259C30.0063 68.5259 30.0069 68.5261 30.0073 68.5265C34.9353 73.149 41.6141 76 48.9893 76C56.5344 76 63.3486 73.0086 68.302 68.1947C68.6955 67.8122 68.6833 67.1827 68.2904 66.7996L50.7286 49.6804C50.3403 49.3019 49.7209 49.3019 49.3326 49.6804L30.0041 68.5219C30.0026 68.5233 30.0036 68.5259 30.0057 68.5259V68.5259Z" fill="#0059FF"/>
<path opacity="0.5" d="M47.791 28C38.6042 28 30.2335 31.2442 23.8324 36.5554C23.3797 36.931 23.3688 37.6158 23.7964 38.0197L48.4958 61.3513C48.8812 61.7154 49.4838 61.7154 49.8692 61.3513L73.2449 39.2702C73.6572 38.8807 73.6643 38.2256 73.2481 37.8403C66.6836 31.7626 57.7111 28 47.7999 28L47.791 28Z" fill="#0059FF"/>
<path opacity="0.72" d="M32.7503 40.0044C32.7503 40.0049 32.7501 40.0054 32.7497 40.0057C28.6055 43.9059 26 49.4456 26 55.6112C26 61.4126 28.216 66.4813 31.8148 70.296C32.1908 70.6946 32.8197 70.6869 33.2055 70.2978L47.3018 56.0826C47.6883 55.6927 47.6883 55.0641 47.3018 54.6743L32.7534 40.0031C32.7523 40.002 32.7503 40.0028 32.7503 40.0044V40.0044Z" fill="#0059FF"/>
</g>
<path d="M9.25 35V23.6875H13.6875C16.2656 23.6875 17.7344 25.2656 17.7344 27.5C17.7344 29.7656 16.2344 31.3125 13.625 31.3125H11.5938V35H9.25ZM11.5938 29.4219H13.25C14.6406 29.4219 15.3125 28.6406 15.3125 27.5C15.3125 26.375 14.6406 25.6094 13.25 25.6094H11.5938V29.4219ZM21.5625 23.6875V35H19.2188V23.6875H21.5625ZM31.0312 27.625C30.8438 26.375 29.875 25.6094 28.5625 25.6094C26.7969 25.6094 25.6406 26.9688 25.6406 29.3438C25.6406 31.7812 26.8125 33.0781 28.5469 33.0781C29.8438 33.0781 30.7969 32.3594 31.0312 31.1406L33.4062 31.1562C33.1406 33.25 31.3906 35.1562 28.5156 35.1562C25.4844 35.1562 23.25 33.0312 23.25 29.3438C23.25 25.6562 25.5312 23.5312 28.5156 23.5312C31.125 23.5312 33.0938 25.0312 33.4062 27.625H31.0312ZM35.0469 35V23.6875H37.3906V28.7031H37.5469L41.6562 23.6875H44.4844L40.2656 28.75L44.5312 35H41.7188L38.5781 30.3281L37.3906 31.7656V35H35.0469Z" fill="white"/>
</svg>
