<svg width="18" height="18" viewBox="0 0 18 18" fill="none" xmlns="http://www.w3.org/2000/svg">
<g clip-path="url(#clip0_1464_106358)">
<path d="M17.6142 6.28292C17.8995 6.4961 17.9347 6.91056 17.6895 7.1688L12.2387 12.9076C11.8687 13.2971 11.2129 13.0352 11.2129 12.498L11.2129 2.6866C11.2129 2.19708 11.7713 1.91724 12.1634 2.21024L17.6142 6.28292Z" fill="white"/>
<path d="M3.58031 12.9359C6.06013 5.42463 9.70069 5.26905 14.768 5.53599L14.549 9.69274C8.975 9.39911 5.76817 10.967 3.58031 12.9359Z" fill="white"/>
<path fill-rule="evenodd" clip-rule="evenodd" d="M0.75 7.60714C0.75 6.71954 1.388 6 2.175 6H3.6C3.9935 6 4.3125 6.35977 4.3125 6.80357C4.3125 7.24737 3.9935 7.60714 3.6 7.60714H2.175L2.175 15.6429L13.575 15.6429V13.6339C13.575 13.1901 13.894 12.8304 14.2875 12.8304C14.681 12.8304 15 13.1901 15 13.6339V15.6429C15 16.5305 14.362 17.25 13.575 17.25H2.175C1.38799 17.25 0.75 16.5305 0.75 15.6429V7.60714Z" fill="white"/>
</g>
<defs>
<clipPath id="clip0_1464_106358">
<rect width="18" height="18" fill="white"/>
</clipPath>
</defs>
</svg>
