<svg width="24" height="25" viewBox="0 0 24 25" fill="none" xmlns="http://www.w3.org/2000/svg">
<path d="M12 5.59863C7 5.59863 2.73 8.46084 1 12.5011C2.73 16.5413 7 19.4035 12 19.4035C17 19.4035 21.27 16.5413 23 12.5011C21.27 8.46084 17 5.59863 12 5.59863ZM12 17.1027C9.24 17.1027 7 15.0411 7 12.5011C7 9.96097 9.24 7.89944 12 7.89944C14.76 7.89944 17 9.96097 17 12.5011C17 15.0411 14.76 17.1027 12 17.1027ZM12 9.74009C10.34 9.74009 9 10.9733 9 12.5011C9 14.0288 10.34 15.262 12 15.262C13.66 15.262 15 14.0288 15 12.5011C15 10.9733 13.66 9.74009 12 9.74009Z" fill="white"/>
</svg>
