<svg width="64" height="64" viewBox="0 0 64 64" fill="none" xmlns="http://www.w3.org/2000/svg">
<path d="M4 32C4 16.536 16.536 4 32 4V4C47.464 4 60 16.536 60 32V32C60 47.464 47.464 60 32 60V60C16.536 60 4 47.464 4 32V32Z" fill="#121212"/>
<g clip-path="url(#clip0_1379_149086)">
<path d="M41.5016 38.5197C41.1456 39.3349 40.7241 40.0853 40.2357 40.7752C39.57 41.7157 39.025 42.3667 38.605 42.7282C37.9538 43.3216 37.2562 43.6255 36.5092 43.6428C35.9728 43.6428 35.3261 43.4916 34.5732 43.1848C33.8179 42.8794 33.1237 42.7282 32.489 42.7282C31.8233 42.7282 31.1094 42.8794 30.3458 43.1848C29.581 43.4916 28.9649 43.6514 28.4938 43.6673C27.7775 43.6975 27.0634 43.385 26.3506 42.7282C25.8957 42.335 25.3267 41.661 24.6451 40.706C23.9137 39.6863 23.3124 38.5038 22.8414 37.1557C22.3369 35.6996 22.084 34.2896 22.084 32.9245C22.084 31.3608 22.425 30.0121 23.1079 28.8819C23.6447 27.9741 24.3587 27.258 25.2524 26.7322C26.1461 26.2065 27.1118 25.9387 28.1517 25.9215C28.7207 25.9215 29.4669 26.0959 30.3942 26.4387C31.3189 26.7827 31.9126 26.9571 32.1729 26.9571C32.3675 26.9571 33.0271 26.7531 34.1452 26.3465C35.2025 25.9695 36.0949 25.8133 36.826 25.8748C38.807 26.0333 40.2953 26.8071 41.2851 28.2013C39.5134 29.2651 38.637 30.7551 38.6544 32.6665C38.6704 34.1553 39.2154 35.3943 40.2866 36.378C40.772 36.8346 41.3142 37.1874 41.9173 37.438C41.7865 37.814 41.6484 38.174 41.5016 38.5197V38.5197ZM36.9583 20.8027C36.9583 21.9697 36.528 23.0592 35.6705 24.0677C34.6357 25.2666 33.384 25.9594 32.0267 25.8501C32.0094 25.7101 31.9993 25.5627 31.9993 25.4079C31.9993 24.2877 32.4915 23.0888 33.3654 22.1085C33.8017 21.6122 34.3566 21.1995 35.0296 20.8703C35.7011 20.546 36.3362 20.3666 36.9336 20.3359C36.951 20.4919 36.9583 20.6479 36.9583 20.8027V20.8027Z" fill="white"/>
</g>
<defs>
<clipPath id="clip0_1379_149086">
<rect width="23.3333" height="23.3333" fill="white" transform="translate(20.334 20.3359)"/>
</clipPath>
</defs>
</svg>
