<svg width="31" height="17" viewBox="0 0 31 17" fill="none" xmlns="http://www.w3.org/2000/svg">
<path d="M0 7.53276V6.05554H7.63557V7.53276H0ZM0.0746467 3.99686C0.536278 3.77489 0.950764 3.52934 1.31614 3.25825C1.68152 2.98717 2.00368 2.69447 2.28065 2.38213C2.55174 2.07373 2.75996 1.74567 2.90926 1.39405C3.05659 1.04242 3.13909 0.673117 3.15874 0.286133H4.88543C4.87365 0.545432 4.84614 0.792945 4.80293 1.03456C4.75971 1.27422 4.69882 1.50602 4.61828 1.72799C4.89525 1.88711 5.16241 2.05015 5.42171 2.2132C5.68101 2.37624 5.92263 2.54321 6.1505 2.71608C6.37247 2.90073 6.60231 3.1011 6.84196 3.31718C7.08162 3.53327 7.32913 3.76899 7.58057 4.02829L6.49034 5.26586C6.27425 5.0262 6.05424 4.79833 5.82637 4.58225C5.5985 4.36617 5.36474 4.1599 5.12509 3.96347C4.90311 3.81024 4.68703 3.66095 4.47487 3.51951C4.26272 3.37808 4.0486 3.24646 3.83252 3.12271L3.72251 3.26218C3.54376 3.47826 3.35321 3.68256 3.15088 3.87703C2.94855 4.07151 2.73246 4.25027 2.50459 4.41724C2.26494 4.596 2.01939 4.75708 1.76991 4.90244C1.52044 5.04781 1.26703 5.17746 1.00773 5.29532L0.0746467 3.9949V3.99686Z" fill="#0059FF"/>
<path d="M9.98589 0.684735V5.91197H11.3217C11.4454 5.91197 11.5672 5.91001 11.691 5.90411C11.8147 5.89822 11.9365 5.88643 12.0603 5.86875C12.184 5.86286 12.296 5.85107 12.3982 5.8334C12.5003 5.81572 12.5966 5.79214 12.683 5.76268V7.0631C12.6005 7.11025 12.5082 7.14561 12.406 7.17311C12.3039 7.19864 12.1899 7.21829 12.0681 7.23007C11.9326 7.24775 11.801 7.25954 11.6733 7.26543C11.5436 7.27133 11.416 7.27329 11.2863 7.27329H8.35938V0.684735H9.98589ZM15.8987 2.91628V4.43672C15.8633 4.43672 15.826 4.43672 15.7848 4.44064C15.7435 4.44457 15.7003 4.4485 15.6531 4.4544C15.606 4.4544 15.5589 4.45832 15.5117 4.46225C15.4646 4.46815 15.4155 4.47011 15.3624 4.47011C15.2622 4.48779 15.1679 4.50547 15.0776 4.52315C14.9872 4.54083 14.9008 4.55851 14.8183 4.57619V7.6426H13.1918V0.570801H14.8183V3.07539C14.9008 3.05182 14.9872 3.03021 15.0776 3.00861C15.1679 2.98896 15.2662 2.96932 15.3722 2.95164C15.4253 2.95164 15.4764 2.94967 15.5255 2.94378C15.5746 2.93789 15.6198 2.93592 15.661 2.93592C15.7081 2.93003 15.7494 2.9261 15.7887 2.92217C15.826 2.92021 15.8633 2.91824 15.8987 2.91824V2.91628Z" fill="#1D1D1B"/>
<path d="M18.9956 0.574989C19.1449 0.606419 19.2903 0.653564 19.4297 0.710531C19.5594 0.781249 19.6792 0.865718 19.7892 0.965902C19.9012 1.06609 20.0053 1.18198 20.1055 1.31753C20.1939 1.45896 20.2764 1.61808 20.351 1.79684C20.4276 1.9756 20.4925 2.17007 20.5435 2.38026C20.5907 2.60224 20.628 2.84582 20.6535 3.10905C20.6791 3.37228 20.6928 3.65711 20.6928 3.96159C20.6928 4.26607 20.6791 4.56859 20.6535 4.83575C20.628 5.1029 20.5907 5.34059 20.5435 5.55275C20.4905 5.77472 20.4257 5.97509 20.351 6.14992C20.2744 6.32475 20.1919 6.4819 20.1055 6.61548C20.0053 6.75692 19.9012 6.87674 19.7892 6.97496C19.6772 7.07515 19.5574 7.15372 19.4297 7.21265C19.2903 7.27748 19.1449 7.32463 18.9956 7.35409C18.8463 7.38356 18.6892 7.39731 18.5261 7.39731C18.3513 7.39731 18.1882 7.38356 18.0389 7.35409C17.8896 7.32463 17.7502 7.27748 17.6225 7.21265C17.4811 7.15372 17.3553 7.07515 17.2394 6.97496C17.1255 6.87478 17.0234 6.75495 16.9369 6.61548C16.8367 6.47994 16.7523 6.32475 16.6815 6.14992C16.6108 5.97509 16.5519 5.77472 16.5067 5.55275C16.4537 5.34256 16.4164 5.1029 16.3928 4.83575C16.3692 4.56859 16.3574 4.27786 16.3574 3.96159C16.3574 3.64533 16.3692 3.37228 16.3928 3.10905C16.4164 2.84582 16.4537 2.60224 16.5067 2.38026C16.5539 2.17007 16.6128 1.9756 16.6815 1.79684C16.7523 1.61808 16.8367 1.45896 16.9369 1.31753C17.0253 1.18198 17.1255 1.06609 17.2394 0.965902C17.3534 0.865718 17.4811 0.781249 17.6225 0.710531C17.7521 0.6516 17.8896 0.606419 18.0389 0.574989C18.1882 0.543558 18.3513 0.525879 18.5261 0.525879C18.6892 0.525879 18.8463 0.541594 18.9956 0.574989ZM18.3886 1.99917C18.3454 2.01292 18.3061 2.0306 18.2707 2.04828C18.2236 2.07774 18.1823 2.11507 18.147 2.15828C18.1116 2.2015 18.0802 2.25847 18.0507 2.32919C18.0154 2.3999 17.9879 2.48634 17.9682 2.58849C17.9486 2.69063 17.9289 2.80457 17.9113 2.92636C17.8877 3.0619 17.872 3.21513 17.8621 3.38799C17.8543 3.56086 17.8484 3.75337 17.8484 3.96356C17.8484 4.18553 17.8523 4.38394 17.8621 4.5568C17.87 4.72967 17.8877 4.877 17.9113 5.00075C17.9289 5.1363 17.9486 5.2522 17.9682 5.35238C17.9879 5.45256 18.0173 5.53703 18.0507 5.60775C18.0802 5.67847 18.1116 5.7374 18.147 5.78258C18.1823 5.82973 18.2236 5.86116 18.2707 5.87884C18.3061 5.9083 18.3454 5.92795 18.3886 5.9358C18.4318 5.94366 18.477 5.94955 18.5241 5.94955C18.5595 5.94955 18.5968 5.94562 18.6381 5.9358C18.6793 5.92795 18.7225 5.9083 18.7697 5.87884C18.8051 5.86116 18.8424 5.82973 18.8797 5.78258C18.917 5.73544 18.9543 5.6765 18.9897 5.60775C19.0133 5.53703 19.0388 5.45256 19.0643 5.35238C19.0899 5.2522 19.1154 5.1363 19.139 5.00075C19.1567 4.877 19.1704 4.72967 19.1822 4.5568C19.194 4.38394 19.1999 4.18553 19.1999 3.96356C19.1999 3.75337 19.194 3.56086 19.1822 3.38799C19.1704 3.21513 19.1567 3.0619 19.139 2.92636C19.1154 2.8026 19.0899 2.69063 19.0643 2.58849C19.0388 2.48634 19.0133 2.3999 18.9897 2.32919C18.9543 2.25847 18.917 2.2015 18.8797 2.15828C18.8424 2.11507 18.8051 2.07774 18.7697 2.04828C18.7225 2.0306 18.6793 2.01488 18.6381 1.99917C18.5968 1.98542 18.5595 1.97756 18.5241 1.97756C18.477 1.97756 18.4318 1.98542 18.3886 1.99917ZM21.3627 7.64482V0.57106H22.9892V7.64482H21.3627Z" fill="#1D1D1B"/>
<path d="M24.3499 1.95962H23.9551V0.641519H28.1824V1.95962H27.6913V5.94929H28.1824V7.2674H23.9551V5.94929H24.3499V1.95962ZM26.2829 5.94929V1.95962H25.7564V5.94929H26.2829ZM29.1391 4.4819C29.092 4.49958 29.0389 4.51136 28.9761 4.51726C28.9152 4.52315 28.8464 4.52511 28.7698 4.52511C28.6814 4.53101 28.595 4.53297 28.5105 4.53297H28.1274V3.12647H29.1371V0.570801H30.6752V7.65242H29.1371V4.47993L29.1391 4.4819Z" fill="#1D1D1B"/>
<path d="M0.537172 10.1592H0.185547V8.91177H3.8786V10.1592H3.51911V11.8112H3.8786V13.0566H0.185547V11.8112H0.537172V10.1592ZM6.22407 16.3273V15.0898H0.729682V13.6125H7.8388V16.3273H6.22407ZM2.26387 11.8132V10.1611H1.79242V11.8132H2.26387ZM6.40873 11.6933C6.32819 11.711 6.24568 11.7248 6.15925 11.7346C6.07282 11.7444 5.98442 11.7483 5.89209 11.7483V13.2904H4.46005V8.88623H5.89209V10.2986H6.40873V8.88623H7.84077V13.2904H6.40873V11.6933Z" fill="#0059FF"/>
<path d="M13.8157 12.7697C13.9788 12.7697 14.1379 12.7697 14.2911 12.7658C14.4443 12.7638 14.5897 12.756 14.7311 12.7442C14.8608 12.7442 14.9845 12.7363 15.1044 12.7226C15.2242 12.7088 15.3381 12.6911 15.4422 12.6735V13.9307C15.3597 13.9601 15.2655 13.9857 15.1574 14.0053C15.0494 14.025 14.9276 14.0387 14.792 14.0446C14.6506 14.0623 14.5033 14.0741 14.3481 14.08C14.1929 14.0859 14.0338 14.0878 13.8688 14.0878H12.9102V14.8971H15.7487V16.2153H8.48242V14.8971H11.321V14.0878H8.91262V9.24561H15.3087V10.5637H10.4056V11.0037H15.2203V12.3218H10.4056V12.7697H13.8157Z" fill="#1D1D1B"/>
<path d="M16.5488 11.9172H19.0181V10.6776H16.5921V9.31632H20.511V13.2353H18.0418V14.5789H20.7566V15.9402H16.5469V11.9152L16.5488 11.9172ZM21.3812 16.3194V9.24561H23.0077V16.3194H21.3812Z" fill="#1D1D1B"/>
</svg>
