<svg width="25" height="22" viewBox="0 0 25 22" fill="none" xmlns="http://www.w3.org/2000/svg">
<path d="M14.8842 17.875L14.6754 17.9059L14.5519 18.077L12.5 20.9199L10.4481 18.077L10.3246 17.9059L10.1158 17.875C4.51375 17.0468 0.5 13.42 0.5 9.27419C0.5 6.90808 1.79149 4.72602 3.95912 3.11781C6.1267 1.50964 9.14473 0.5 12.5 0.5C15.8553 0.5 18.8733 1.50964 21.0409 3.11781C23.2085 4.72602 24.5 6.90808 24.5 9.27419C24.5 13.42 20.4863 17.0468 14.8842 17.875Z" stroke="black"/>
<circle cx="8.5" cy="9.5" r="1.5" fill="black"/>
<circle cx="13" cy="9.5" r="1.5" fill="black"/>
<circle cx="17.5" cy="9.5" r="1.5" fill="black"/>
</svg>
