<svg width="47" height="47" viewBox="0 0 47 47" fill="none" xmlns="http://www.w3.org/2000/svg">
<rect width="47" height="47" rx="23.5" fill="#0059FF"/>
<path fill-rule="evenodd" clip-rule="evenodd" d="M19.6306 11.7509C19.6306 12.0696 19.5454 12.3685 19.3966 12.626H23.1321V16.3617C23.3894 16.213 23.6881 16.1279 24.0067 16.1279C24.9737 16.1279 25.7576 16.9118 25.7576 17.8788C25.7576 18.8458 24.9737 19.6296 24.0067 19.6296C23.6881 19.6296 23.3894 19.5446 23.1321 19.3959V23.1311H19.3964C19.5454 22.8736 19.6306 22.5746 19.6306 22.2557C19.6306 21.2888 18.8467 20.5049 17.8798 20.5049C16.9128 20.5049 16.1289 21.2888 16.1289 22.2557C16.1289 22.5746 16.2142 22.8736 16.3631 23.1311H12.627V19.395C12.3693 19.5442 12.07 19.6296 11.7509 19.6296C10.7839 19.6296 10 18.8457 10 17.8788C10 16.9118 10.7839 16.1279 11.7509 16.1279C12.07 16.1279 12.3693 16.2133 12.627 16.3625V12.626H16.363C16.2141 12.3685 16.1289 12.0696 16.1289 11.7509C16.1289 10.7839 16.9128 10 17.8798 10C18.8467 10 19.6306 10.7839 19.6306 11.7509Z" fill="white"/>
<path d="M19.3966 12.626L19.0565 12.4293L18.7156 13.0188H19.3966V12.626ZM23.1321 12.626H23.525V12.2331H23.1321V12.626ZM23.1321 16.3617H22.7392V17.0424L23.3286 16.7019L23.1321 16.3617ZM23.1321 19.3959L23.3286 19.0557L22.7392 18.7152V19.3959H23.1321ZM23.1321 23.1311V23.524H23.525V23.1311H23.1321ZM19.3964 23.1311L19.0563 22.9344L18.7153 23.524H19.3964V23.1311ZM16.3631 23.1311V23.524H17.0442L16.7032 22.9344L16.3631 23.1311ZM12.627 23.1311H12.2341V23.524H12.627V23.1311ZM12.627 19.395H13.0198V18.7135L12.4301 19.055L12.627 19.395ZM12.627 16.3625L12.4301 16.7025L13.0198 17.044V16.3625H12.627ZM12.627 12.626V12.2331H12.2341V12.626H12.627ZM16.363 12.626V13.0188H17.0439L16.7031 12.4293L16.363 12.626ZM19.7367 12.8226C19.9192 12.507 20.0235 12.1405 20.0235 11.7509H19.2378C19.2378 11.9988 19.1717 12.23 19.0565 12.4293L19.7367 12.8226ZM23.1321 12.2331H19.3966V13.0188H23.1321V12.2331ZM23.525 16.3617V12.626H22.7392V16.3617H23.525ZM24.0067 15.7351C23.6173 15.7351 23.2511 15.8393 22.9356 16.0215L23.3286 16.7019C23.5278 16.5868 23.759 16.5208 24.0067 16.5208V15.7351ZM26.1504 17.8788C26.1504 16.6948 25.1907 15.7351 24.0067 15.7351V16.5208C24.7567 16.5208 25.3647 17.1288 25.3647 17.8788H26.1504ZM24.0067 20.0225C25.1907 20.0225 26.1504 19.0627 26.1504 17.8788H25.3647C25.3647 18.6288 24.7567 19.2368 24.0067 19.2368V20.0225ZM22.9356 19.7361C23.2511 19.9183 23.6173 20.0225 24.0067 20.0225V19.2368C23.759 19.2368 23.5278 19.1708 23.3286 19.0557L22.9356 19.7361ZM23.525 23.1311V19.3959H22.7392V23.1311H23.525ZM19.3964 23.524H23.1321V22.7383H19.3964V23.524ZM19.2378 22.2557C19.2378 22.5037 19.1716 22.7351 19.0563 22.9344L19.7365 23.3278C19.9191 23.0121 20.0235 22.6455 20.0235 22.2557H19.2378ZM17.8798 20.8977C18.6298 20.8977 19.2378 21.5057 19.2378 22.2557H20.0235C20.0235 21.0718 19.0637 20.112 17.8798 20.112V20.8977ZM16.5218 22.2557C16.5218 21.5057 17.1298 20.8977 17.8798 20.8977V20.112C16.6958 20.112 15.736 21.0718 15.736 22.2557H16.5218ZM16.7032 22.9344C16.5879 22.7351 16.5218 22.5037 16.5218 22.2557H15.736C15.736 22.6455 15.8404 23.0121 16.023 23.3278L16.7032 22.9344ZM12.627 23.524H16.3631V22.7383H12.627V23.524ZM12.2341 19.395V23.1311H13.0198V19.395H12.2341ZM11.7509 20.0225C12.141 20.0225 12.5079 19.9179 12.8238 19.735L12.4301 19.055C12.2306 19.1705 11.9991 19.2368 11.7509 19.2368V20.0225ZM9.60714 17.8788C9.60714 19.0627 10.5669 20.0225 11.7509 20.0225V19.2368C11.0009 19.2368 10.3929 18.6288 10.3929 17.8788H9.60714ZM11.7509 15.735C10.5669 15.735 9.60714 16.6948 9.60714 17.8788H10.3929C10.3929 17.1288 11.0009 16.5208 11.7509 16.5208V15.735ZM12.8238 16.0226C12.5079 15.8396 12.141 15.735 11.7509 15.735V16.5208C11.9991 16.5208 12.2306 16.587 12.4301 16.7025L12.8238 16.0226ZM12.2341 12.626V16.3625H13.0198V12.626H12.2341ZM16.363 12.2331H12.627V13.0188H16.363V12.2331ZM15.736 11.7509C15.736 12.1405 15.8404 12.507 16.0229 12.8226L16.7031 12.4293C16.5878 12.23 16.5218 11.9988 16.5218 11.7509H15.736ZM17.8798 9.60714C16.6958 9.60714 15.736 10.5669 15.736 11.7509H16.5218C16.5218 11.0009 17.1298 10.3929 17.8798 10.3929V9.60714ZM20.0235 11.7509C20.0235 10.5669 19.0637 9.60714 17.8798 9.60714V10.3929C18.6298 10.3929 19.2378 11.0009 19.2378 11.7509H20.0235Z" fill="#0059FF"/>
<path fill-rule="evenodd" clip-rule="evenodd" d="M19.6309 22.2548C19.6309 22.5735 19.5457 22.8724 19.3968 23.1299L23.1331 23.1299V26.8665C22.8754 26.7172 22.5762 26.6318 22.257 26.6318C21.29 26.6318 20.5061 27.4157 20.5061 28.3827C20.5061 29.3497 21.29 30.1336 22.257 30.1336C22.5762 30.1336 22.8754 30.0481 23.1331 29.8989V33.635H19.3966C19.5456 33.8926 19.6309 34.1916 19.6309 34.5106C19.6309 35.4776 18.847 36.2615 17.88 36.2615C16.9131 36.2615 16.1292 35.4776 16.1292 34.5106C16.1292 34.1916 16.2145 33.8926 16.3635 33.635H12.6279V29.8995C12.8854 30.0484 13.1843 30.1336 13.5031 30.1336C14.4701 30.1336 15.2539 29.3497 15.2539 28.3827C15.2539 27.4157 14.4701 26.6318 13.5031 26.6318C13.1843 26.6318 12.8854 26.717 12.6279 26.8659V23.1299L16.3632 23.1299C16.2144 22.8724 16.1292 22.5735 16.1292 22.2548C16.1292 21.2878 16.9131 20.5039 17.88 20.5039C18.847 20.5039 19.6309 21.2878 19.6309 22.2548Z" fill="white"/>
<path d="M19.3968 23.1299L19.0567 22.9332L18.7159 23.5227H19.3968V23.1299ZM23.1331 23.1299H23.5259V22.737H23.1331V23.1299ZM23.1331 26.8665L22.9362 27.2064L23.5259 27.5479V26.8665H23.1331ZM23.1331 29.8989H23.5259V29.2175L22.9362 29.559L23.1331 29.8989ZM23.1331 33.635V34.0279H23.5259V33.635H23.1331ZM19.3966 33.635V33.2422H18.7154L19.0565 33.8318L19.3966 33.635ZM16.3635 33.635L16.7035 33.8318L17.0447 33.2422H16.3635V33.635ZM12.6279 33.635H12.2351V34.0279H12.6279V33.635ZM12.6279 29.8995L12.8246 29.5594L12.2351 29.2185V29.8995H12.6279ZM12.6279 26.8659H12.2351V27.5469L12.8246 27.206L12.6279 26.8659ZM12.6279 23.1299L12.6279 22.737H12.2351V23.1299H12.6279ZM16.3632 23.1299V23.5227H17.0442L16.7033 22.9332L16.3632 23.1299ZM19.7369 23.3265C19.9194 23.0109 20.0238 22.6444 20.0238 22.2548H19.238C19.238 22.5027 19.172 22.7339 19.0567 22.9332L19.7369 23.3265ZM23.1331 22.737L19.3968 22.737V23.5227L23.1331 23.5227V22.737ZM23.5259 26.8665V23.1299H22.7402V26.8665H23.5259ZM22.257 27.0247C22.5052 27.0247 22.7368 27.0909 22.9362 27.2064L23.3299 26.5265C23.014 26.3436 22.6471 26.239 22.257 26.239V27.0247ZM20.899 28.3827C20.899 27.6327 21.507 27.0247 22.257 27.0247V26.239C21.073 26.239 20.1133 27.1988 20.1133 28.3827H20.899ZM22.257 29.7407C21.507 29.7407 20.899 29.1327 20.899 28.3827H20.1133C20.1133 29.5666 21.073 30.5264 22.257 30.5264V29.7407ZM22.9362 29.559C22.7368 29.6745 22.5052 29.7407 22.257 29.7407V30.5264C22.6471 30.5264 23.014 30.4218 23.3299 30.2389L22.9362 29.559ZM23.5259 33.635V29.8989H22.7402V33.635H23.5259ZM19.3966 34.0279H23.1331V33.2422H19.3966V34.0279ZM20.0238 34.5106C20.0238 34.1207 19.9193 33.754 19.7366 33.4383L19.0565 33.8318C19.1719 34.0312 19.238 34.2626 19.238 34.5106H20.0238ZM17.88 36.6543C19.064 36.6543 20.0238 35.6946 20.0238 34.5106H19.238C19.238 35.2606 18.63 35.8686 17.88 35.8686V36.6543ZM15.7363 34.5106C15.7363 35.6946 16.6961 36.6543 17.88 36.6543V35.8686C17.13 35.8686 16.522 35.2606 16.522 34.5106H15.7363ZM16.0235 33.4383C15.8408 33.754 15.7363 34.1207 15.7363 34.5106H16.522C16.522 34.2626 16.5882 34.0312 16.7035 33.8318L16.0235 33.4383ZM12.6279 34.0279H16.3635V33.2422H12.6279V34.0279ZM12.2351 29.8995V33.635H13.0208V29.8995H12.2351ZM13.5031 29.7407C13.2552 29.7407 13.0239 29.6746 12.8246 29.5594L12.4313 30.2396C12.7469 30.4221 13.1134 30.5264 13.5031 30.5264V29.7407ZM14.8611 28.3827C14.8611 29.1327 14.2531 29.7407 13.5031 29.7407V30.5264C14.687 30.5264 15.6468 29.5666 15.6468 28.3827H14.8611ZM13.5031 27.0247C14.2531 27.0247 14.8611 27.6327 14.8611 28.3827H15.6468C15.6468 27.1988 14.687 26.239 13.5031 26.239V27.0247ZM12.8246 27.206C13.0239 27.0908 13.2552 27.0247 13.5031 27.0247V26.239C13.1134 26.239 12.7469 26.3433 12.4313 26.5258L12.8246 27.206ZM12.2351 23.1299V26.8659H13.0208V23.1299H12.2351ZM16.3632 22.737L12.6279 22.737L12.6279 23.5227L16.3632 23.5227V22.737ZM15.7363 22.2548C15.7363 22.6444 15.8406 23.0109 16.0231 23.3265L16.7033 22.9332C16.5881 22.7339 16.522 22.5027 16.522 22.2548H15.7363ZM17.88 20.111C16.6961 20.111 15.7363 21.0708 15.7363 22.2548H16.522C16.522 21.5048 17.13 20.8968 17.88 20.8968V20.111ZM20.0238 22.2548C20.0238 21.0708 19.064 20.111 17.88 20.111V20.8968C18.63 20.8968 19.238 21.5048 19.238 22.2548H20.0238Z" fill="#0059FF"/>
<path fill-rule="evenodd" clip-rule="evenodd" d="M40.0922 5.0181C39.9328 5.2942 39.7096 5.51047 39.4519 5.659L42.687 7.52683L40.8189 10.7625C40.6704 10.5047 40.4541 10.2814 40.1779 10.122C39.3405 9.6385 38.2697 9.92542 37.7862 10.7628C37.3027 11.6003 37.5896 12.6711 38.4271 13.1546C38.7032 13.314 39.0048 13.3897 39.3023 13.3894L37.4345 16.6246L34.1982 14.7561C34.1985 15.0538 34.1229 15.3555 33.9633 15.6319C33.4798 16.4693 32.409 16.7562 31.5716 16.2727C30.7342 15.7892 30.4473 14.7184 30.9307 13.881C31.0903 13.6047 31.3138 13.3883 31.5718 13.2397L28.3367 11.372L30.2044 8.13715C30.3529 8.39468 30.5691 8.61779 30.845 8.77712C31.6825 9.2606 32.7533 8.97368 33.2368 8.13626C33.7202 7.29884 33.4333 6.22803 32.5959 5.74454C32.3199 5.58521 32.0186 5.50955 31.7213 5.50968L33.5893 2.27425L36.8248 4.14226C36.8246 3.84482 36.9002 3.54335 37.0596 3.26724C37.5431 2.42981 38.6139 2.14289 39.4514 2.62638C40.2888 3.10986 40.5757 4.18067 40.0922 5.0181Z" fill="white"/>
<path d="M39.4519 5.659L39.2557 5.31864L38.6657 5.65873L39.2554 5.99923L39.4519 5.659ZM42.687 7.52683L43.0273 7.72326L43.2237 7.38303L42.8835 7.1866L42.687 7.52683ZM40.8189 10.7625L40.4785 10.9586L40.8186 11.5488L41.1591 10.9589L40.8189 10.7625ZM39.3023 13.3894L39.6425 13.5859L39.983 12.996L39.3019 12.9966L39.3023 13.3894ZM37.4345 16.6246L37.238 16.9648L37.5783 17.1612L37.7747 16.821L37.4345 16.6246ZM34.1982 14.7561L34.3946 14.4159L33.8045 14.0752L33.8053 14.7565L34.1982 14.7561ZM31.5718 13.2397L31.7678 13.5802L32.3582 13.2402L31.7682 12.8995L31.5718 13.2397ZM28.3367 11.372L27.9965 11.1755L27.8001 11.5158L28.1403 11.7122L28.3367 11.372ZM30.2044 8.13715L30.5447 7.94087L30.2045 7.35113L29.8641 7.94072L30.2044 8.13715ZM31.7213 5.50968L31.3811 5.31325L31.0407 5.90284L31.7215 5.90254L31.7213 5.50968ZM33.5893 2.27425L33.7857 1.93403L33.4455 1.7376L33.2491 2.07782L33.5893 2.27425ZM36.8248 4.14226L36.6284 4.48249L37.2181 4.82299L37.2176 4.14198L36.8248 4.14226ZM39.6481 5.99937C39.964 5.81727 40.2376 5.55202 40.4324 5.21453L39.752 4.82167C39.628 5.03639 39.4551 5.20366 39.2557 5.31864L39.6481 5.99937ZM42.8835 7.1866L39.6483 5.31878L39.2554 5.99923L42.4906 7.86705L42.8835 7.1866ZM41.1591 10.9589L43.0273 7.72326L42.3468 7.3304L40.4787 10.5661L41.1591 10.9589ZM39.9815 10.4622C40.1963 10.5862 40.3636 10.7591 40.4785 10.9586L41.1593 10.5663C40.9772 10.2503 40.7119 9.97665 40.3744 9.78176L39.9815 10.4622ZM38.1264 10.9593C38.5014 10.3098 39.332 10.0872 39.9815 10.4622L40.3744 9.78176C39.349 9.18979 38.038 9.54109 37.446 10.5664L38.1264 10.9593ZM38.6235 12.8143C37.974 12.4393 37.7514 11.6088 38.1264 10.9593L37.446 10.5664C36.854 11.5917 37.2053 12.9028 38.2306 13.4948L38.6235 12.8143ZM39.3019 12.9966C39.0717 12.9967 38.8383 12.9383 38.6235 12.8143L38.2306 13.4948C38.5682 13.6897 38.9379 13.7826 39.3026 13.7823L39.3019 12.9966ZM37.7747 16.821L39.6425 13.5859L38.962 13.193L37.0942 16.4281L37.7747 16.821ZM34.0017 15.0963L37.238 16.9648L37.6309 16.2843L34.3946 14.4159L34.0017 15.0963ZM34.3035 15.8283C34.4986 15.4905 34.5915 15.1206 34.591 14.7556L33.8053 14.7565C33.8056 14.987 33.7472 15.2205 33.6231 15.4354L34.3035 15.8283ZM31.3752 16.6129C32.4005 17.2049 33.7116 16.8536 34.3035 15.8283L33.6231 15.4354C33.2481 16.085 32.4176 16.3075 31.768 15.9325L31.3752 16.6129ZM30.5905 13.6846C29.9985 14.7099 30.3498 16.021 31.3752 16.6129L31.768 15.9325C31.1185 15.5575 30.896 14.727 31.271 14.0774L30.5905 13.6846ZM31.3757 12.8993C31.0595 13.0814 30.7855 13.3468 30.5905 13.6846L31.271 14.0774C31.395 13.8625 31.5681 13.6952 31.7678 13.5802L31.3757 12.8993ZM28.1403 11.7122L31.3753 13.5799L31.7682 12.8995L28.5332 11.0318L28.1403 11.7122ZM29.8641 7.94072L27.9965 11.1755L28.677 11.5684L30.5446 8.33358L29.8641 7.94072ZM31.0415 8.43689C30.8269 8.31299 30.6596 8.14021 30.5447 7.94087L29.864 8.33343C30.0461 8.64914 30.3113 8.92259 30.6486 9.11734L31.0415 8.43689ZM32.8965 7.93983C32.5215 8.58935 31.691 8.81189 31.0415 8.43689L30.6486 9.11734C31.6739 9.70932 32.985 9.35801 33.577 8.33269L32.8965 7.93983ZM32.3995 6.08477C33.049 6.45977 33.2715 7.29031 32.8965 7.93983L33.577 8.33269C34.169 7.30736 33.8176 5.99629 32.7923 5.40432L32.3995 6.08477ZM31.7215 5.90254C31.9516 5.90244 32.1849 5.96086 32.3995 6.08477L32.7923 5.40432C32.455 5.20956 32.0856 5.11666 31.7212 5.11682L31.7215 5.90254ZM33.2491 2.07782L31.3811 5.31325L32.0616 5.70611L33.9295 2.47068L33.2491 2.07782ZM37.0212 3.80203L33.7857 1.93403L33.3929 2.61448L36.6284 4.48249L37.0212 3.80203ZM36.7194 3.07081C36.5246 3.4083 36.4317 3.7779 36.4319 4.14253L37.2176 4.14198C37.2175 3.91175 37.2759 3.67839 37.3999 3.46367L36.7194 3.07081ZM39.6478 2.28615C38.6225 1.69418 37.3114 2.04548 36.7194 3.07081L37.3999 3.46367C37.7749 2.81415 38.6054 2.5916 39.2549 2.9666L39.6478 2.28615ZM40.4324 5.21453C41.0244 4.1892 40.6731 2.87812 39.6478 2.28615L39.2549 2.9666C39.9045 3.34161 40.127 4.17215 39.752 4.82167L40.4324 5.21453Z" fill="#0059FF"/>
<path fill-rule="evenodd" clip-rule="evenodd" d="M22.2548 26.6329C22.5732 26.6329 22.8718 26.7179 23.1291 26.8665V23.1309L26.8654 23.1309C26.7164 23.3884 26.6311 23.6875 26.6311 24.0065C26.6311 24.9734 27.415 25.7573 28.3819 25.7573C29.3489 25.7573 30.1328 24.9734 30.1328 24.0065C30.1328 23.6875 30.0475 23.3884 29.8985 23.1309L33.6343 23.1309V26.8678C33.8921 26.7184 34.1915 26.6329 34.5109 26.6329C35.4779 26.6329 36.2618 27.4168 36.2618 28.3837C36.2618 29.3507 35.4779 30.1346 34.5109 30.1346C34.1915 30.1346 33.8921 30.0491 33.6343 29.8997V33.636H29.9006C30.0495 33.8935 30.1347 34.1925 30.1347 34.5113C30.1347 35.4783 29.3509 36.2622 28.3839 36.2622C27.4169 36.2622 26.633 35.4783 26.633 34.5113C26.633 34.1925 26.7183 33.8935 26.8672 33.636H23.1291V29.901C22.8718 30.0496 22.5732 30.1346 22.2548 30.1346C21.2878 30.1346 20.5039 29.3507 20.5039 28.3837C20.5039 27.4168 21.2878 26.6329 22.2548 26.6329Z" fill="white"/>
<path d="M23.1291 26.8665L22.9326 27.2067L23.522 27.5471V26.8665H23.1291ZM23.1291 23.1309V22.738L22.7363 22.738V23.1309H23.1291ZM26.8654 23.1309L27.2055 23.3276L27.5466 22.738L26.8654 22.738V23.1309ZM28.3819 25.7573V26.1502V25.7573ZM29.8985 23.1309V22.738L29.2173 22.738L29.5584 23.3276L29.8985 23.1309ZM33.6343 23.1309H34.0271V22.738L33.6343 22.738V23.1309ZM33.6343 26.8678H33.2414V27.5495L33.8313 27.2077L33.6343 26.8678ZM33.6343 29.8997L33.8313 29.5598L33.2414 29.2179V29.8997H33.6343ZM33.6343 33.636V34.0289H34.0271V33.636H33.6343ZM29.9006 33.636V33.2432H29.2195L29.5605 33.8327L29.9006 33.636ZM26.8672 33.636L27.2073 33.8327L27.5483 33.2432H26.8672V33.636ZM23.1291 33.636H22.7363V34.0289H23.1291V33.636ZM23.1291 29.901H23.522V29.2204L22.9326 29.5608L23.1291 29.901ZM20.5039 28.3837H20.8968H20.5039ZM23.3256 26.5263C23.0102 26.3441 22.644 26.24 22.2548 26.24V27.0257C22.5024 27.0257 22.7335 27.0917 22.9326 27.2067L23.3256 26.5263ZM22.7363 23.1309V26.8665H23.522V23.1309H22.7363ZM26.8654 22.738L23.1291 22.738V23.5237L26.8654 23.5237V22.738ZM27.0239 24.0065C27.0239 23.7584 27.0901 23.527 27.2055 23.3276L26.5254 22.9341C26.3427 23.2499 26.2382 23.6166 26.2382 24.0065H27.0239ZM28.3819 25.3645C27.6319 25.3645 27.0239 24.7565 27.0239 24.0065H26.2382C26.2382 25.1904 27.198 26.1502 28.3819 26.1502V25.3645ZM29.7399 24.0065C29.7399 24.7565 29.1319 25.3645 28.3819 25.3645V26.1502C29.5659 26.1502 30.5257 25.1904 30.5257 24.0065H29.7399ZM29.5584 23.3276C29.6738 23.527 29.7399 23.7584 29.7399 24.0065H30.5257C30.5257 23.6166 30.4212 23.2499 30.2385 22.9341L29.5584 23.3276ZM33.6343 22.738L29.8985 22.738V23.5237L33.6343 23.5237V22.738ZM34.0271 26.8678V23.1309H33.2414V26.8678H34.0271ZM34.5109 26.24C34.1205 26.24 33.7533 26.3448 33.4373 26.5279L33.8313 27.2077C34.0308 27.0921 34.2625 27.0257 34.5109 27.0257V26.24ZM36.6546 28.3837C36.6546 27.1998 35.6948 26.24 34.5109 26.24V27.0257C35.2609 27.0257 35.8689 27.6337 35.8689 28.3837H36.6546ZM34.5109 30.5275C35.6948 30.5275 36.6546 29.5677 36.6546 28.3837H35.8689C35.8689 29.1337 35.2609 29.7417 34.5109 29.7417V30.5275ZM33.4373 30.2396C33.7533 30.4227 34.1205 30.5275 34.5109 30.5275V29.7417C34.2625 29.7417 34.0308 29.6754 33.8313 29.5598L33.4373 30.2396ZM34.0271 33.636V29.8997H33.2414V33.636H34.0271ZM29.9006 34.0289H33.6343V33.2432H29.9006V34.0289ZM29.5605 33.8327C29.6758 34.032 29.7419 34.2634 29.7419 34.5113H30.5276C30.5276 34.1216 30.4232 33.755 30.2406 33.4393L29.5605 33.8327ZM29.7419 34.5113C29.7419 35.2613 29.1339 35.8693 28.3839 35.8693V36.6551C29.5678 36.6551 30.5276 35.6953 30.5276 34.5113H29.7419ZM28.3839 35.8693C27.6339 35.8693 27.0259 35.2613 27.0259 34.5113H26.2402C26.2402 35.6953 27.1999 36.6551 28.3839 36.6551V35.8693ZM27.0259 34.5113C27.0259 34.2634 27.092 34.032 27.2073 33.8327L26.5271 33.4393C26.3445 33.755 26.2402 34.1216 26.2402 34.5113H27.0259ZM23.1291 34.0289H26.8672V33.2432H23.1291V34.0289ZM22.7363 29.901V33.636H23.522V29.901H22.7363ZM22.2548 30.5275C22.644 30.5275 23.0102 30.4233 23.3256 30.2412L22.9326 29.5608C22.7335 29.6758 22.5024 29.7417 22.2548 29.7417V30.5275ZM20.111 28.3837C20.111 29.5677 21.0708 30.5275 22.2548 30.5275V29.7417C21.5048 29.7417 20.8968 29.1337 20.8968 28.3837H20.111ZM22.2548 26.24C21.0708 26.24 20.111 27.1998 20.111 28.3837H20.8968C20.8968 27.6337 21.5048 27.0257 22.2548 27.0257V26.24Z" fill="#0059FF"/>
</svg>
