<svg width="47" height="47" viewBox="0 0 47 47" fill="none" xmlns="http://www.w3.org/2000/svg">
<rect width="47" height="47" rx="23.5" fill="#0059FF"/>
<path fill-rule="evenodd" clip-rule="evenodd" d="M30.4349 16.4626C30.1978 16.8734 29.8656 17.1951 29.4821 17.416L34.2934 20.1938L31.5153 25.0055C31.2944 24.6221 30.9727 24.29 30.562 24.0528C29.3166 23.3338 27.7242 23.7605 27.0052 25.0058C26.2862 26.2512 26.7129 27.8436 27.9582 28.5626C28.369 28.7998 28.8175 28.9123 29.26 28.9119L26.4821 33.7233L21.6709 30.9455C21.6713 31.388 21.5588 31.8365 21.3216 32.2473C20.6026 33.4926 19.0102 33.9193 17.7649 33.2003C16.5195 32.4813 16.0928 30.8889 16.8118 29.6435C17.049 29.2328 17.3811 28.9111 17.7645 28.6902L12.9526 25.912L15.731 21.0998C15.9519 21.4836 16.2737 21.816 16.6848 22.0534C17.9301 22.7724 19.5226 22.3457 20.2416 21.1003C20.9606 19.855 20.5339 18.2625 19.2885 17.5435C18.8775 17.3062 18.4286 17.1937 17.9858 17.1943L20.7639 12.3825L25.5758 15.1607C25.5754 14.7182 25.6879 14.2697 25.9251 13.8589C26.6441 12.6135 28.2365 12.1868 29.4819 12.9058C30.7272 13.6248 31.1539 15.2173 30.4349 16.4626Z" fill="white"/>
<path d="M29.4821 17.416L29.2786 17.0628L28.6661 17.4156L29.2783 17.7691L29.4821 17.416ZM34.2934 20.1938L34.6464 20.3976L34.8503 20.0446L34.4972 19.8407L34.2934 20.1938ZM31.5153 25.0055L31.1621 25.2091L31.515 25.8215L31.8684 25.2094L31.5153 25.0055ZM29.26 28.9119L29.613 29.1157L29.9665 28.5036L29.2596 28.5042L29.26 28.9119ZM26.4821 33.7233L26.2783 34.0763L26.6313 34.2802L26.8352 33.9271L26.4821 33.7233ZM21.6709 30.9455L21.8748 30.5925L21.2626 30.2391L21.2632 30.9459L21.6709 30.9455ZM17.7645 28.6902L17.9681 29.0434L18.5805 28.6905L17.9684 28.3371L17.7645 28.6902ZM12.9526 25.912L12.5996 25.7082L12.3957 26.0613L12.7488 26.2651L12.9526 25.912ZM15.731 21.0998L16.0843 20.8964L15.7315 20.2836L15.3779 20.896L15.731 21.0998ZM17.9858 17.1943L17.6328 16.9904L17.2792 17.6028L17.9864 17.6019L17.9858 17.1943ZM20.7639 12.3825L20.9677 12.0295L20.6147 11.8256L20.4108 12.1787L20.7639 12.3825ZM25.5758 15.1607L25.372 15.5138L25.9842 15.8672L25.9835 15.1603L25.5758 15.1607ZM29.6856 17.7693C30.1295 17.5135 30.514 17.141 30.788 16.6665L30.0819 16.2588C29.8815 16.6058 29.6016 16.8767 29.2786 17.0628L29.6856 17.7693ZM34.4972 19.8407L29.686 17.063L29.2783 17.7691L34.0895 20.5469L34.4972 19.8407ZM31.8684 25.2094L34.6464 20.3976L33.9403 19.99L31.1623 24.8017L31.8684 25.2094ZM30.3581 24.4059C30.7052 24.6062 30.976 24.8861 31.1621 25.2091L31.8686 24.802C31.6128 24.3582 31.2403 23.9737 30.7658 23.6997L30.3581 24.4059ZM27.3582 25.2097C27.9647 24.1593 29.3078 23.7994 30.3581 24.4059L30.7658 23.6997C29.3255 22.8682 27.4837 23.3617 26.6521 24.802L27.3582 25.2097ZM28.1621 28.2096C27.1117 27.6031 26.7518 26.26 27.3582 25.2097L26.6521 24.802C25.8205 26.2423 26.314 28.0841 27.7544 28.9157L28.1621 28.2096ZM29.2596 28.5042C28.8869 28.5046 28.5091 28.4099 28.1621 28.2096L27.7544 28.9157C28.2289 29.1896 28.7481 29.32 29.2603 29.3196L29.2596 28.5042ZM26.8352 33.9271L29.613 29.1157L28.9069 28.7081L26.1291 33.5194L26.8352 33.9271ZM21.4671 31.2986L26.2783 34.0763L26.686 33.3702L21.8748 30.5925L21.4671 31.2986ZM21.6747 32.4511C21.9487 31.9766 22.0791 31.4574 22.0786 30.9452L21.2632 30.9459C21.2636 31.3186 21.1689 31.6964 20.9686 32.0434L21.6747 32.4511ZM17.561 33.5534C19.0014 34.385 20.8431 33.8915 21.6747 32.4511L20.9686 32.0434C20.3622 33.0938 19.0191 33.4537 17.9687 32.8473L17.561 33.5534ZM16.4588 29.4397C15.6272 30.88 16.1207 32.7218 17.561 33.5534L17.9687 32.8473C16.9183 32.2408 16.5584 30.8977 17.1649 29.8474L16.4588 29.4397ZM17.561 28.3369C17.1172 28.5927 16.7327 28.9652 16.4588 29.4397L17.1649 29.8474C17.3652 29.5003 17.6451 29.2295 17.9681 29.0434L17.561 28.3369ZM12.7488 26.2651L17.5607 29.0432L17.9684 28.3371L13.1565 25.559L12.7488 26.2651ZM15.3779 20.896L12.5996 25.7082L13.3057 26.1159L16.084 21.3037L15.3779 20.896ZM16.8886 21.7003C16.5413 21.4998 16.2704 21.2197 16.0843 20.8964L15.3776 21.3032C15.6334 21.7475 16.0061 22.1323 16.4809 22.4064L16.8886 21.7003ZM19.8885 20.8965C19.2821 21.9468 17.939 22.3067 16.8886 21.7003L16.4809 22.4064C17.9213 23.238 19.763 22.7445 20.5946 21.3042L19.8885 20.8965ZM19.0847 17.8966C20.1351 18.503 20.4949 19.8461 19.8885 20.8965L20.5946 21.3042C21.4262 19.8638 20.9327 18.022 19.4924 17.1905L19.0847 17.8966ZM17.9864 17.6019C18.3593 17.6015 18.7374 17.6961 19.0847 17.8966L19.4924 17.1905C19.0175 16.9163 18.4979 16.7859 17.9853 16.7866L17.9864 17.6019ZM20.4108 12.1787L17.6328 16.9904L18.3389 17.3981L21.1169 12.5864L20.4108 12.1787ZM25.7797 14.8077L20.9677 12.0295L20.56 12.7356L25.372 15.5138L25.7797 14.8077ZM25.572 13.655C25.2981 14.1295 25.1677 14.6488 25.1681 15.1611L25.9835 15.1603C25.9832 14.7876 26.0778 14.4098 26.2782 14.0627L25.572 13.655ZM29.6857 12.5528C28.2454 11.7212 26.4036 12.2147 25.572 13.655L26.2782 14.0627C26.8846 13.0123 28.2277 12.6525 29.278 13.2589L29.6857 12.5528ZM30.788 16.6665C31.6196 15.2261 31.1261 13.3844 29.6857 12.5528L29.278 13.2589C30.3284 13.8653 30.6883 15.2084 30.0819 16.2588L30.788 16.6665Z" fill="#0059FF"/>
</svg>
